ffmpeg version 2023-09-07-git-9c9f48e7f2-essentials_build-www.gyan.dev Copyright (c) 2000-2023 the FFmpeg developers
  built with gcc 12.2.0 (Rev10, Built by MSYS2 project)
  configuration: --enable-gpl --enable-version3 --enable-static --disable-w32threads --disable-autodetect --enable-fontconfig --enable-iconv --enable-gnutls --enable-libxml2 --enable-gmp --enable-bzlib --enable-lzma --enable-zlib --enable-libsrt --enable-libssh --enable-libzmq --enable-avisynth --enable-sdl2 --enable-libwebp --enable-libx264 --enable-libx265 --enable-libxvid --enable-libaom --enable-libopenjpeg --enable-libvpx --enable-mediafoundation --enable-libass --enable-libfreetype --enable-libfribidi --enable-libharfbuzz --enable-libvidstab --enable-libvmaf --enable-libzimg --enable-amf --enable-cuda-llvm --enable-cuvid --enable-ffnvcodec --enable-nvdec --enable-nvenc --enable-dxva2 --enable-d3d11va --enable-libvpl --enable-libgme --enable-libopenmpt --enable-libopencore-amrwb --enable-libmp3lame --enable-libtheora --enable-libvo-amrwbenc --enable-libgsm --enable-libopencore-amrnb --enable-libopus --enable-libspeex --enable-libvorbis --enable-librubberband
  libavutil      58. 19.100 / 58. 19.100
  libavcodec     60. 26.100 / 60. 26.100
  libavformat    60. 11.100 / 60. 11.100
  libavdevice    60.  2.101 / 60.  2.101
  libavfilter     9. 11.100 /  9. 11.100
  libswscale      7.  3.100 /  7.  3.100
  libswresample   4. 11.100 /  4. 11.100
  libpostproc    57.  2.100 / 57.  2.100
Input #0, mov,mp4,m4a,3gp,3g2,mj2, from 'original_clips/preston_where_are_you.mp4':
  Metadata:
    major_brand     : isom
    minor_version   : 512
    compatible_brands: isomiso2avc1mp41
    encoder         : https://clipchamp.com
    comment         : Create videos with https://clipchamp.com/en/video-editor - free online video editor, video compressor, video converter.
  Duration: 00:00:21.27, start: 0.000000, bitrate: 4661 kb/s
  Stream #0:0[0x1](und): Video: h264 (Constrained Baseline) (avc1 / 0x31637661), yuv420p(progressive), 852x480, 4461 kb/s, 30 fps, 30 tbr, 15360 tbn (default)
    Metadata:
      handler_name    : VideoHandler
      vendor_id       : [0][0][0][0]
  Stream #0:1[0x2](und): Audio: aac (LC) (mp4a / 0x6134706D), 44100 Hz, stereo, fltp, 192 kb/s (default)
    Metadata:
      handler_name    : SoundHandler
      vendor_id       : [0][0][0][0]
Stream mapping:
  Stream #0:0 -> #0:0 (h264 (native) -> h264 (libx264))
  Stream #0:1 -> #0:1 (aac (native) -> aac (native))
Press [q] to stop, [?] for help
[libx264 @ 0000012d52441440] using cpu capabilities: MMX2 SSE2Fast SSSE3 SSE4.2 AVX FMA3 BMI2 AVX2
[libx264 @ 0000012d52441440] profile High, level 3.1, 4:2:0, 8-bit
[libx264 @ 0000012d52441440] 264 - core 164 r3107 a8b68eb - H.264/MPEG-4 AVC codec - Copyleft 2003-2023 - http://www.videolan.org/x264.html - options: cabac=1 ref=3 deblock=1:0:0 analyse=0x3:0x113 me=hex subme=7 psy=1 psy_rd=1.00:0.00 mixed_ref=1 me_range=16 chroma_me=1 trellis=1 8x8dct=1 cqm=0 deadzone=21,11 fast_pskip=1 chroma_qp_offset=-2 threads=15 lookahead_threads=2 sliced_threads=0 nr=0 decimate=1 interlaced=0 bluray_compat=0 constrained_intra=0 bframes=3 b_pyramid=2 b_adapt=1 b_bias=0 direct=1 weightb=1 open_gop=0 weightp=2 keyint=250 keyint_min=25 scenecut=40 intra_refresh=0 rc_lookahead=40 rc=crf mbtree=1 crf=23.0 qcomp=0.60 qpmin=0 qpmax=69 qpstep=4 ip_ratio=1.40 aq=1:1.00
Output #0, mp4, to 'clips/preston_where_are_you.mp4':
  Metadata:
    major_brand     : isom
    minor_version   : 512
    compatible_brands: isomiso2avc1mp41
    comment         : Create videos with https://clipchamp.com/en/video-editor - free online video editor, video compressor, video converter.
    encoder         : Lavf60.11.100
  Stream #0:0(und): Video: h264 (avc1 / 0x31637661), yuv420p(progressive), 852x480, q=2-31, 30 fps, 15360 tbn (default)
    Metadata:
      handler_name    : VideoHandler
      vendor_id       : [0][0][0][0]
      encoder         : Lavc60.26.100 libx264
    Side data:
      cpb: bitrate max/min/avg: 0/0/0 buffer size: 0 vbv_delay: N/A
  Stream #0:1(und): Audio: aac (LC) (mp4a / 0x6134706D), 44100 Hz, stereo, fltp, 128 kb/s (default)
    Metadata:
      handler_name    : SoundHandler
      vendor_id       : [0][0][0][0]
      encoder         : Lavc60.26.100 aac
frame=    0 fps=0.0 q=0.0 size=       0kB time=00:00:00.35 bitrate=   1.1kbits/s speed=17.7x    frame=  125 fps=0.0 q=29.0 size=     768kB time=00:00:06.47 bitrate= 971.3kbits/s speed=12.4x    frame=  321 fps=314 q=29.0 size=    1280kB time=00:00:13.00 bitrate= 806.2kbits/s speed=12.7x    frame=  450 fps=295 q=29.0 size=    2816kB time=00:00:17.29 bitrate=1333.6kbits/s speed=11.3x    [out#0/mp4 @ 0000012d52242380] video:4861kB audio:336kB subtitle:0kB other streams:0kB global headers:0kB muxing overhead: 0.497807%
frame=  638 fps=307 q=-1.0 Lsize=    5222kB time=00:00:21.22 bitrate=2015.7kbits/s speed=10.2x    
[libx264 @ 0000012d52441440] frame I:8     Avg QP:22.19  size: 34417
[libx264 @ 0000012d52441440] frame P:268   Avg QP:24.68  size: 10317
[libx264 @ 0000012d52441440] frame B:362   Avg QP:26.17  size:  5349
[libx264 @ 0000012d52441440] consecutive B-frames: 21.6%  3.1% 15.0% 60.2%
[libx264 @ 0000012d52441440] mb I  I16..4: 12.4% 44.5% 43.2%
[libx264 @ 0000012d52441440] mb P  I16..4:  4.3% 17.8%  5.0%  P16..4: 24.0% 11.0%  6.6%  0.0%  0.0%    skip:31.3%
[libx264 @ 0000012d52441440] mb B  I16..4:  2.2%  4.7%  1.8%  B16..8: 34.8%  9.4%  2.3%  direct: 2.3%  skip:42.5%  L0:51.8% L1:42.9% BI: 5.4%
[libx264 @ 0000012d52441440] 8x8 transform intra:60.9% inter:51.8%
[libx264 @ 0000012d52441440] coded y,uvDC,uvAC intra: 41.3% 39.3% 11.6% inter: 17.5% 7.3% 0.6%
[libx264 @ 0000012d52441440] i16 v,h,dc,p: 32% 33% 17% 18%
[libx264 @ 0000012d52441440] i8 v,h,dc,ddl,ddr,vr,hd,vl,hu: 29% 19% 30%  3%  3%  4%  4%  4%  4%
[libx264 @ 0000012d52441440] i4 v,h,dc,ddl,ddr,vr,hd,vl,hu: 23% 24% 15%  5%  6%  6%  8%  5%  6%
[libx264 @ 0000012d52441440] i8c dc,h,v,p: 62% 17% 18%  3%
[libx264 @ 0000012d52441440] Weighted P-Frames: Y:0.0% UV:0.0%
[libx264 @ 0000012d52441440] ref P L0: 73.5% 11.2% 10.1%  5.2%
[libx264 @ 0000012d52441440] ref B L0: 87.9%  9.5%  2.6%
[libx264 @ 0000012d52441440] ref B L1: 96.6%  3.4%
[libx264 @ 0000012d52441440] kb/s:1872.07
[aac @ 0000012d5228c5c0] Qavg: 450.587
